<?xml version="1.0" encoding="UTF-8"?>
<svg xmlns="http://www.w3.org/2000/svg" xmlns:xlink="http://www.w3.org/1999/xlink" width="16px" height="16px" viewBox="0 0 16 16" version="1.1">
<g id="surface1">
<path style=" stroke:none;fill-rule:evenodd;fill:rgb(0%,0%,0%);fill-opacity:1;" d="M 10.328125 9.636719 C 9.4375 11.183594 6.769531 11.304688 5.535156 9.742188 C 5.921875 9.613281 6.203125 9.425781 6.292969 9.179688 C 6.742188 9.492188 7.285156 9.667969 7.839844 9.679688 C 8.46875 9.679688 9.09375 9.429688 9.652344 9.027344 C 9.714844 9.289062 9.96875 9.492188 10.335938 9.640625 Z M 4.238281 9.964844 C 3.324219 10.15625 2.46875 10.402344 1.878906 10.726562 C 0.507812 11.488281 0.585938 13.300781 0.253906 14.765625 C 0.160156 15.175781 0.0664062 15.589844 0.0078125 16 L 3.140625 16 L 3.140625 15 C 3.132812 14.886719 3.191406 14.78125 3.292969 14.722656 C 3.390625 14.664062 3.519531 14.664062 3.621094 14.722656 C 3.71875 14.78125 3.777344 14.886719 3.769531 15 L 3.769531 16 L 12.222656 16 L 12.222656 15 C 12.222656 14.832031 12.363281 14.699219 12.535156 14.699219 C 12.710938 14.699219 12.851562 14.832031 12.851562 15 L 12.851562 16 L 15.992188 16 C 15.941406 15.730469 15.878906 15.46875 15.832031 15.195312 C 15.574219 13.667969 15.574219 11.496094 14.050781 10.738281 C 13.375 10.398438 12.398438 10.132812 11.453125 9.902344 C 12.855469 10.066406 14.601562 9.8125 14.828125 9.191406 C 12.765625 9.035156 12.117188 6.023438 12.128906 3.828125 C 11.792969 0.605469 8.75 -0.613281 6.394531 0.289062 C 3.429688 1.433594 3.820312 3.921875 3.539062 6.265625 C 3.355469 7.796875 2.808594 9.078125 1.316406 9.191406 C 1.523438 9.753906 2.957031 10.03125 4.238281 9.964844 Z M 8.855469 2.382812 C 7.46875 3.714844 6.007812 4.238281 4.472656 4.609375 C 4.457031 4.6875 4.453125 4.765625 4.460938 4.84375 C 4.460938 6.859375 6.058594 9.277344 7.84375 9.277344 C 9.625 9.277344 11.421875 6.859375 11.421875 4.84375 C 11.425781 4.539062 11.375 4.230469 11.273438 3.941406 C 9.925781 3.925781 9.402344 3.28125 8.855469 2.378906 Z M 8.855469 2.382812 "/>
</g>
</svg>
