<?xml version="1.0" encoding="UTF-8"?>
<svg xmlns="http://www.w3.org/2000/svg" xmlns:xlink="http://www.w3.org/1999/xlink" width="16px" height="16px" viewBox="0 0 16 15" version="1.1">
<g id="surface1">
<path style=" stroke:none;fill-rule:nonzero;fill:rgb(0%,0%,0%);fill-opacity:1;" d="M 0.0117188 15 C 0.507812 10.902344 0.386719 11.269531 5.222656 9.984375 C 5.84375 12.753906 10.617188 12.773438 10.710938 9.984375 C 15.839844 11.347656 15.613281 10.855469 15.988281 15 Z M 3.652344 2.84375 C 5.746094 0.269531 8.160156 -1.128906 9.972656 1.164062 C 12.15625 1.277344 13.03125 4.464844 11.289062 5.917969 C 11.289062 5.945312 11.289062 5.976562 11.28125 6.003906 C 11.347656 5.984375 11.414062 5.96875 11.480469 5.964844 C 11.605469 5.953125 11.726562 5.976562 11.839844 6.03125 C 11.957031 6.09375 12.046875 6.203125 12.085938 6.332031 C 12.175781 6.613281 11.871094 7.832031 11.628906 8.023438 C 11.523438 8.097656 11.390625 8.128906 11.257812 8.109375 L 11.191406 8.097656 C 11.175781 8.953125 10.753906 9.21875 10.203125 9.734375 C 10.132812 9.800781 10.058594 9.863281 9.992188 9.933594 C 9.425781 10.46875 8.816406 10.726562 8.203125 10.726562 C 7.585938 10.726562 6.941406 10.460938 6.355469 9.941406 C 6.265625 9.863281 6.207031 9.8125 6.148438 9.761719 C 5.601562 9.304688 5.148438 9.039062 5.0625 8.097656 C 4.9375 8.105469 4.808594 8.078125 4.699219 8.011719 C 4.246094 7.753906 4.085938 6.558594 4.238281 6.1875 C 4.351562 5.875 4.527344 5.773438 4.761719 5.777344 C 4.207031 5.417969 5.101562 3.273438 3.652344 2.84375 Z M 5.121094 6.289062 C 4.234375 5.980469 4.527344 7.855469 5.191406 7.660156 C 5.210938 7.652344 5.230469 7.648438 5.253906 7.648438 C 5.308594 7.644531 5.363281 7.664062 5.40625 7.703125 C 5.445312 7.738281 5.472656 7.792969 5.472656 7.847656 C 5.496094 8.785156 5.910156 9.011719 6.417969 9.449219 C 6.496094 9.515625 6.578125 9.578125 6.632812 9.632812 C 7.140625 10.082031 7.671875 10.316406 8.203125 10.316406 C 8.738281 10.316406 9.226562 10.09375 9.703125 9.636719 C 10.34375 9.019531 10.851562 8.808594 10.769531 7.804688 C 10.765625 7.757812 10.777344 7.710938 10.800781 7.675781 C 10.832031 7.628906 10.878906 7.597656 10.933594 7.585938 C 10.988281 7.574219 11.042969 7.585938 11.089844 7.617188 C 11.640625 7.976562 11.871094 6.34375 11.523438 6.371094 C 11.28125 6.386719 11.144531 6.589844 10.992188 6.5625 C 10.878906 6.546875 10.800781 6.4375 10.820312 6.328125 C 11.015625 5.191406 10.925781 4.449219 10.683594 3.945312 C 10.480469 3.554688 10.160156 3.234375 9.761719 3.042969 C 8.398438 4.078125 7.148438 3.558594 6.097656 4.429688 C 5.652344 4.796875 5.421875 5.34375 5.589844 6.109375 C 5.601562 6.152344 5.601562 6.199219 5.589844 6.238281 C 5.507812 6.464844 5.285156 6.347656 5.132812 6.292969 Z M 5.121094 6.289062 "/>
</g>
</svg>
